<mxfile host="app.diagrams.net" agent="Mozilla/5.0 (Windows NT 10.0; Win64; x64) AppleWebKit/537.36 (KHTML, like Gecko) Chrome/135.0.0.0 Safari/537.36" version="26.2.10">
  <diagram name="Page-1" id="q8MJre1eFBd4P3hf_yTO">
    <mxGraphModel dx="1975" dy="835" grid="0" gridSize="10" guides="1" tooltips="1" connect="1" arrows="1" fold="1" page="0" pageScale="1" pageWidth="850" pageHeight="1100" math="0" shadow="0">
      <root>
        <mxCell id="0" />
        <mxCell id="1" parent="0" />
        <mxCell id="IKbNWxXJ5woNdYA1CIfF-1" value="" style="rounded=0;whiteSpace=wrap;html=1;" vertex="1" parent="1">
          <mxGeometry x="-980" y="-15" width="217" height="396" as="geometry" />
        </mxCell>
        <mxCell id="IKbNWxXJ5woNdYA1CIfF-66" value="" style="rounded=1;whiteSpace=wrap;html=1;rotation=-180;" vertex="1" parent="1">
          <mxGeometry x="-685" y="215" width="259" height="138" as="geometry" />
        </mxCell>
        <mxCell id="IKbNWxXJ5woNdYA1CIfF-67" value="-&amp;nbsp; &amp;nbsp; &amp;nbsp;+" style="text;strokeColor=none;align=center;fillColor=none;html=1;verticalAlign=middle;whiteSpace=wrap;rounded=0;fontSize=16;" vertex="1" parent="1">
          <mxGeometry x="-665" y="317" width="60" height="30" as="geometry" />
        </mxCell>
        <mxCell id="IKbNWxXJ5woNdYA1CIfF-69" value="120 AH 3.5v" style="rounded=0;whiteSpace=wrap;html=1;" vertex="1" parent="1">
          <mxGeometry x="-352" y="350" width="120" height="60" as="geometry" />
        </mxCell>
        <mxCell id="IKbNWxXJ5woNdYA1CIfF-70" value="&lt;br&gt;120 AH 3.5v" style="rounded=0;whiteSpace=wrap;html=1;" vertex="1" parent="1">
          <mxGeometry x="-350" y="435" width="120" height="60" as="geometry" />
        </mxCell>
        <mxCell id="IKbNWxXJ5woNdYA1CIfF-71" value="120 AH 3.5v" style="rounded=0;whiteSpace=wrap;html=1;" vertex="1" parent="1">
          <mxGeometry x="-352" y="595" width="120" height="60" as="geometry" />
        </mxCell>
        <mxCell id="IKbNWxXJ5woNdYA1CIfF-72" value="&lt;div&gt;120 AH 3.5v&lt;/div&gt;" style="rounded=0;whiteSpace=wrap;html=1;" vertex="1" parent="1">
          <mxGeometry x="-352" y="515" width="120" height="60" as="geometry" />
        </mxCell>
        <mxCell id="IKbNWxXJ5woNdYA1CIfF-78" value="" style="endArrow=none;html=1;rounded=0;fontSize=12;startSize=8;endSize=8;curved=1;exitX=1;exitY=0.75;exitDx=0;exitDy=0;" edge="1" parent="1" source="IKbNWxXJ5woNdYA1CIfF-69">
          <mxGeometry width="50" height="50" relative="1" as="geometry">
            <mxPoint x="-220" y="405" as="sourcePoint" />
            <mxPoint x="-184" y="395" as="targetPoint" />
          </mxGeometry>
        </mxCell>
        <mxCell id="IKbNWxXJ5woNdYA1CIfF-79" value="" style="endArrow=none;html=1;rounded=0;fontSize=12;startSize=8;endSize=8;curved=1;exitX=1;exitY=0.75;exitDx=0;exitDy=0;" edge="1" parent="1">
          <mxGeometry width="50" height="50" relative="1" as="geometry">
            <mxPoint x="-232" y="368" as="sourcePoint" />
            <mxPoint x="-202" y="368" as="targetPoint" />
          </mxGeometry>
        </mxCell>
        <mxCell id="IKbNWxXJ5woNdYA1CIfF-80" value="" style="endArrow=none;html=1;rounded=0;fontSize=12;startSize=8;endSize=8;curved=1;exitX=1;exitY=0.75;exitDx=0;exitDy=0;" edge="1" parent="1">
          <mxGeometry width="50" height="50" relative="1" as="geometry">
            <mxPoint x="-230" y="478.21" as="sourcePoint" />
            <mxPoint x="-182" y="478.21" as="targetPoint" />
          </mxGeometry>
        </mxCell>
        <mxCell id="IKbNWxXJ5woNdYA1CIfF-81" value="" style="endArrow=none;html=1;rounded=0;fontSize=12;startSize=8;endSize=8;curved=1;exitX=1;exitY=0.75;exitDx=0;exitDy=0;" edge="1" parent="1">
          <mxGeometry width="50" height="50" relative="1" as="geometry">
            <mxPoint x="-230" y="451.21" as="sourcePoint" />
            <mxPoint x="-200" y="451.21" as="targetPoint" />
          </mxGeometry>
        </mxCell>
        <mxCell id="IKbNWxXJ5woNdYA1CIfF-85" value="" style="endArrow=none;html=1;rounded=0;fontSize=12;startSize=8;endSize=8;curved=1;exitX=1;exitY=0.75;exitDx=0;exitDy=0;" edge="1" parent="1">
          <mxGeometry width="50" height="50" relative="1" as="geometry">
            <mxPoint x="-232" y="558.21" as="sourcePoint" />
            <mxPoint x="-184" y="558.21" as="targetPoint" />
          </mxGeometry>
        </mxCell>
        <mxCell id="IKbNWxXJ5woNdYA1CIfF-86" value="" style="endArrow=none;html=1;rounded=0;fontSize=12;startSize=8;endSize=8;curved=1;exitX=1;exitY=0.75;exitDx=0;exitDy=0;" edge="1" parent="1">
          <mxGeometry width="50" height="50" relative="1" as="geometry">
            <mxPoint x="-232" y="531.21" as="sourcePoint" />
            <mxPoint x="-202" y="531.21" as="targetPoint" />
          </mxGeometry>
        </mxCell>
        <mxCell id="IKbNWxXJ5woNdYA1CIfF-87" value="" style="endArrow=none;html=1;rounded=0;fontSize=12;startSize=8;endSize=8;curved=1;exitX=1;exitY=0.75;exitDx=0;exitDy=0;" edge="1" parent="1">
          <mxGeometry width="50" height="50" relative="1" as="geometry">
            <mxPoint x="-232" y="638.21" as="sourcePoint" />
            <mxPoint x="-184" y="638.21" as="targetPoint" />
          </mxGeometry>
        </mxCell>
        <mxCell id="IKbNWxXJ5woNdYA1CIfF-88" value="" style="endArrow=none;html=1;rounded=0;fontSize=12;startSize=8;endSize=8;curved=1;exitX=1;exitY=0.75;exitDx=0;exitDy=0;" edge="1" parent="1">
          <mxGeometry width="50" height="50" relative="1" as="geometry">
            <mxPoint x="-232" y="611.21" as="sourcePoint" />
            <mxPoint x="-202" y="611.21" as="targetPoint" />
          </mxGeometry>
        </mxCell>
        <mxCell id="IKbNWxXJ5woNdYA1CIfF-89" value="" style="endArrow=none;html=1;rounded=0;fontSize=12;startSize=8;endSize=8;curved=1;" edge="1" parent="1">
          <mxGeometry width="50" height="50" relative="1" as="geometry">
            <mxPoint x="-203" y="610" as="sourcePoint" />
            <mxPoint x="-204" y="281" as="targetPoint" />
          </mxGeometry>
        </mxCell>
        <mxCell id="IKbNWxXJ5woNdYA1CIfF-90" value="" style="endArrow=none;html=1;rounded=0;fontSize=12;startSize=8;endSize=8;curved=1;" edge="1" parent="1">
          <mxGeometry width="50" height="50" relative="1" as="geometry">
            <mxPoint x="-184" y="639" as="sourcePoint" />
            <mxPoint x="-183" y="326" as="targetPoint" />
          </mxGeometry>
        </mxCell>
        <mxCell id="IKbNWxXJ5woNdYA1CIfF-92" value="Voltage Sensor" style="shape=process;whiteSpace=wrap;html=1;backgroundOutline=1;" vertex="1" parent="1">
          <mxGeometry x="-146" y="260" width="120" height="87" as="geometry" />
        </mxCell>
        <mxCell id="IKbNWxXJ5woNdYA1CIfF-94" value="" style="endArrow=none;html=1;rounded=0;fontSize=12;startSize=8;endSize=8;curved=1;entryX=0;entryY=0.25;entryDx=0;entryDy=0;" edge="1" parent="1" target="IKbNWxXJ5woNdYA1CIfF-92">
          <mxGeometry width="50" height="50" relative="1" as="geometry">
            <mxPoint x="-204" y="281" as="sourcePoint" />
            <mxPoint x="47" y="334" as="targetPoint" />
          </mxGeometry>
        </mxCell>
        <mxCell id="IKbNWxXJ5woNdYA1CIfF-95" value="" style="endArrow=none;html=1;rounded=0;fontSize=12;startSize=8;endSize=8;curved=1;entryX=0;entryY=0.75;entryDx=0;entryDy=0;" edge="1" parent="1" target="IKbNWxXJ5woNdYA1CIfF-92">
          <mxGeometry width="50" height="50" relative="1" as="geometry">
            <mxPoint x="-183" y="326" as="sourcePoint" />
            <mxPoint x="-128" y="325" as="targetPoint" />
          </mxGeometry>
        </mxCell>
        <mxCell id="IKbNWxXJ5woNdYA1CIfF-98" value="" style="endArrow=none;html=1;rounded=0;fontSize=12;startSize=8;endSize=8;curved=1;exitX=0.75;exitY=1;exitDx=0;exitDy=0;" edge="1" parent="1" source="IKbNWxXJ5woNdYA1CIfF-1">
          <mxGeometry width="50" height="50" relative="1" as="geometry">
            <mxPoint x="-537" y="395" as="sourcePoint" />
            <mxPoint x="-817" y="415" as="targetPoint" />
          </mxGeometry>
        </mxCell>
        <mxCell id="IKbNWxXJ5woNdYA1CIfF-99" value="" style="endArrow=none;html=1;rounded=0;fontSize=12;startSize=8;endSize=8;curved=1;exitX=0.75;exitY=1;exitDx=0;exitDy=0;" edge="1" parent="1">
          <mxGeometry width="50" height="50" relative="1" as="geometry">
            <mxPoint x="-653" y="353" as="sourcePoint" />
            <mxPoint x="-653" y="416" as="targetPoint" />
          </mxGeometry>
        </mxCell>
        <mxCell id="IKbNWxXJ5woNdYA1CIfF-100" value="" style="endArrow=none;html=1;rounded=0;fontSize=12;startSize=8;endSize=8;curved=1;exitX=0.75;exitY=1;exitDx=0;exitDy=0;" edge="1" parent="1">
          <mxGeometry width="50" height="50" relative="1" as="geometry">
            <mxPoint x="-621" y="353" as="sourcePoint" />
            <mxPoint x="-621" y="448" as="targetPoint" />
          </mxGeometry>
        </mxCell>
        <mxCell id="IKbNWxXJ5woNdYA1CIfF-101" value="" style="endArrow=none;html=1;rounded=0;fontSize=12;startSize=8;endSize=8;curved=1;exitX=0.75;exitY=1;exitDx=0;exitDy=0;" edge="1" parent="1">
          <mxGeometry width="50" height="50" relative="1" as="geometry">
            <mxPoint x="-924" y="381" as="sourcePoint" />
            <mxPoint x="-924" y="447" as="targetPoint" />
          </mxGeometry>
        </mxCell>
        <mxCell id="IKbNWxXJ5woNdYA1CIfF-102" value="" style="endArrow=none;html=1;rounded=0;fontSize=12;startSize=8;endSize=8;curved=1;" edge="1" parent="1">
          <mxGeometry width="50" height="50" relative="1" as="geometry">
            <mxPoint x="-924" y="448" as="sourcePoint" />
            <mxPoint x="-621" y="448" as="targetPoint" />
          </mxGeometry>
        </mxCell>
        <mxCell id="IKbNWxXJ5woNdYA1CIfF-103" value="" style="endArrow=none;html=1;rounded=0;fontSize=12;startSize=8;endSize=8;curved=1;" edge="1" parent="1">
          <mxGeometry width="50" height="50" relative="1" as="geometry">
            <mxPoint x="-818" y="415" as="sourcePoint" />
            <mxPoint x="-653" y="416" as="targetPoint" />
          </mxGeometry>
        </mxCell>
        <mxCell id="IKbNWxXJ5woNdYA1CIfF-104" value="- out&amp;nbsp; &amp;nbsp; &amp;nbsp;+out" style="text;strokeColor=none;align=center;fillColor=none;html=1;verticalAlign=middle;whiteSpace=wrap;rounded=0;fontSize=16;" vertex="1" parent="1">
          <mxGeometry x="-600.75" y="324" width="90.5" height="16" as="geometry" />
        </mxCell>
        <mxCell id="IKbNWxXJ5woNdYA1CIfF-105" value="" style="endArrow=none;html=1;rounded=0;fontSize=12;startSize=8;endSize=8;curved=1;exitX=0.75;exitY=1;exitDx=0;exitDy=0;" edge="1" parent="1">
          <mxGeometry width="50" height="50" relative="1" as="geometry">
            <mxPoint x="-538" y="353" as="sourcePoint" />
            <mxPoint x="-538" y="365" as="targetPoint" />
          </mxGeometry>
        </mxCell>
        <mxCell id="IKbNWxXJ5woNdYA1CIfF-106" value="" style="endArrow=none;html=1;rounded=0;fontSize=12;startSize=8;endSize=8;curved=1;exitX=0.75;exitY=1;exitDx=0;exitDy=0;" edge="1" parent="1">
          <mxGeometry width="50" height="50" relative="1" as="geometry">
            <mxPoint x="-576" y="353" as="sourcePoint" />
            <mxPoint x="-576" y="387" as="targetPoint" />
          </mxGeometry>
        </mxCell>
        <mxCell id="IKbNWxXJ5woNdYA1CIfF-107" value="" style="endArrow=none;html=1;rounded=0;fontSize=12;startSize=8;endSize=8;curved=1;" edge="1" parent="1">
          <mxGeometry width="50" height="50" relative="1" as="geometry">
            <mxPoint x="-539" y="370" as="sourcePoint" />
            <mxPoint x="-352" y="369" as="targetPoint" />
          </mxGeometry>
        </mxCell>
        <mxCell id="IKbNWxXJ5woNdYA1CIfF-108" value="" style="endArrow=none;html=1;rounded=0;fontSize=12;startSize=8;endSize=8;curved=1;" edge="1" parent="1">
          <mxGeometry width="50" height="50" relative="1" as="geometry">
            <mxPoint x="-442" y="395" as="sourcePoint" />
            <mxPoint x="-352" y="395" as="targetPoint" />
          </mxGeometry>
        </mxCell>
        <mxCell id="IKbNWxXJ5woNdYA1CIfF-109" value="" style="endArrow=none;html=1;rounded=0;fontSize=12;startSize=8;endSize=8;curved=1;exitX=0.75;exitY=1;exitDx=0;exitDy=0;" edge="1" parent="1">
          <mxGeometry width="50" height="50" relative="1" as="geometry">
            <mxPoint x="-382" y="395" as="sourcePoint" />
            <mxPoint x="-382" y="638" as="targetPoint" />
          </mxGeometry>
        </mxCell>
        <mxCell id="IKbNWxXJ5woNdYA1CIfF-110" value="" style="endArrow=none;html=1;rounded=0;fontSize=12;startSize=8;endSize=8;curved=1;exitX=1;exitY=0.75;exitDx=0;exitDy=0;" edge="1" parent="1">
          <mxGeometry width="50" height="50" relative="1" as="geometry">
            <mxPoint x="-400" y="449" as="sourcePoint" />
            <mxPoint x="-352" y="449" as="targetPoint" />
          </mxGeometry>
        </mxCell>
        <mxCell id="IKbNWxXJ5woNdYA1CIfF-111" value="" style="endArrow=none;html=1;rounded=0;fontSize=12;startSize=8;endSize=8;curved=1;exitX=1;exitY=0.75;exitDx=0;exitDy=0;" edge="1" parent="1">
          <mxGeometry width="50" height="50" relative="1" as="geometry">
            <mxPoint x="-382" y="475" as="sourcePoint" />
            <mxPoint x="-352" y="475" as="targetPoint" />
          </mxGeometry>
        </mxCell>
        <mxCell id="IKbNWxXJ5woNdYA1CIfF-112" value="" style="endArrow=none;html=1;rounded=0;fontSize=12;startSize=8;endSize=8;curved=1;exitX=1;exitY=0.75;exitDx=0;exitDy=0;" edge="1" parent="1">
          <mxGeometry width="50" height="50" relative="1" as="geometry">
            <mxPoint x="-400" y="531.71" as="sourcePoint" />
            <mxPoint x="-352" y="531.71" as="targetPoint" />
          </mxGeometry>
        </mxCell>
        <mxCell id="IKbNWxXJ5woNdYA1CIfF-113" value="" style="endArrow=none;html=1;rounded=0;fontSize=12;startSize=8;endSize=8;curved=1;exitX=1;exitY=0.75;exitDx=0;exitDy=0;" edge="1" parent="1">
          <mxGeometry width="50" height="50" relative="1" as="geometry">
            <mxPoint x="-382" y="557.71" as="sourcePoint" />
            <mxPoint x="-352" y="557.71" as="targetPoint" />
          </mxGeometry>
        </mxCell>
        <mxCell id="IKbNWxXJ5woNdYA1CIfF-114" value="" style="endArrow=none;html=1;rounded=0;fontSize=12;startSize=8;endSize=8;curved=1;exitX=1;exitY=0.75;exitDx=0;exitDy=0;" edge="1" parent="1">
          <mxGeometry width="50" height="50" relative="1" as="geometry">
            <mxPoint x="-400" y="611.71" as="sourcePoint" />
            <mxPoint x="-352" y="611.71" as="targetPoint" />
          </mxGeometry>
        </mxCell>
        <mxCell id="IKbNWxXJ5woNdYA1CIfF-115" value="" style="endArrow=none;html=1;rounded=0;fontSize=12;startSize=8;endSize=8;curved=1;exitX=1;exitY=0.75;exitDx=0;exitDy=0;" edge="1" parent="1">
          <mxGeometry width="50" height="50" relative="1" as="geometry">
            <mxPoint x="-382" y="637.71" as="sourcePoint" />
            <mxPoint x="-352" y="637.71" as="targetPoint" />
          </mxGeometry>
        </mxCell>
        <mxCell id="IKbNWxXJ5woNdYA1CIfF-117" value="" style="endArrow=none;html=1;rounded=0;fontSize=12;startSize=8;endSize=8;curved=1;exitX=0.75;exitY=1;exitDx=0;exitDy=0;" edge="1" parent="1">
          <mxGeometry width="50" height="50" relative="1" as="geometry">
            <mxPoint x="-400" y="369" as="sourcePoint" />
            <mxPoint x="-400" y="612" as="targetPoint" />
          </mxGeometry>
        </mxCell>
      </root>
    </mxGraphModel>
  </diagram>
</mxfile>
